<svg width="124" height="42" viewBox="0 0 124 42" fill="none" xmlns="http://www.w3.org/2000/svg">
<rect width="124" height="42" rx="6" fill="#1C1C1C"/>
<path d="M24.9295 8.6897C25.0799 10.0467 24.5382 11.384 23.7465 12.3669C22.9203 13.3345 21.5987 14.0747 20.3115 13.9793C20.143 12.6736 20.7952 11.2851 21.5253 10.4379C22.3506 9.47658 23.7836 8.74006 24.9295 8.6897Z" fill="white"/>
<path d="M29.1433 16.5179C28.9997 16.6031 26.6191 18.0136 26.6452 20.8904C26.6759 24.3643 29.7069 25.5127 29.7431 25.5244C29.725 25.6054 29.2685 27.1836 28.1316 28.7826C27.1823 30.1927 26.1877 31.5713 24.6079 31.5947C23.8566 31.6123 23.3494 31.3979 22.8208 31.1745C22.2697 30.9417 21.6954 30.699 20.797 30.699C19.8447 30.699 19.2449 30.9497 18.6665 31.1914C18.1661 31.4006 17.6817 31.6031 16.9989 31.6306C15.4942 31.6855 14.3447 30.127 13.361 28.7295C11.3944 25.8779 9.86354 20.6934 11.9162 17.1655C12.9108 15.4353 14.7243 14.3211 16.6628 14.2914C17.5164 14.2741 18.3351 14.6007 19.0529 14.887C19.6017 15.1059 20.0915 15.3013 20.4927 15.3013C20.845 15.3013 21.3211 15.1137 21.8759 14.8951C22.7503 14.5506 23.8204 14.1289 24.9105 14.2428C25.656 14.2644 27.7775 14.5351 29.1462 16.5162L29.1433 16.5179Z" fill="white"/>
<path fill-rule="evenodd" clip-rule="evenodd" d="M40.0406 9.46421H37.9142V15.7452H40.0406C41.9215 15.7452 43.0264 14.583 43.0264 12.6025C43.0264 10.6264 41.9171 9.46421 40.0406 9.46421ZM38.7034 10.1694V15.04H39.988C41.4217 15.04 42.2197 14.1695 42.2197 12.6112C42.2197 11.0399 41.4261 10.1694 39.988 10.1694H38.7034Z" fill="white"/>
<path fill-rule="evenodd" clip-rule="evenodd" d="M46.0747 15.8235C44.812 15.8235 43.9614 14.9225 43.9614 13.4818C43.9614 12.0367 44.812 11.14 46.0747 11.14C47.3331 11.14 48.1836 12.0367 48.1836 13.4818C48.1836 14.9225 47.3331 15.8235 46.0747 15.8235ZM47.4076 13.4818C47.4076 14.5482 46.8815 15.1576 46.0747 15.1576C45.268 15.1576 44.7375 14.5482 44.7375 13.4818C44.7375 12.4154 45.268 11.806 46.0747 11.806C46.8815 11.806 47.4076 12.4154 47.4076 13.4818Z" fill="white"/>
<path d="M53.0033 15.7452H53.7793L55.0508 11.2184H54.2967L53.3847 14.9008H53.3672L52.3325 11.2184H51.5959L50.5656 14.9008H50.548L49.6361 11.2184H48.8775L50.1534 15.7452H50.9295L51.9554 12.2412H51.9729L53.0033 15.7452Z" fill="white"/>
<path d="M56.6918 11.2184H55.9727V15.7452H56.7356V13.0813C56.7356 12.3152 57.2047 11.8103 57.9238 11.8103C58.6253 11.8103 58.9717 12.2108 58.9717 12.942V15.7452H59.7345V12.8071C59.7345 11.7799 59.1558 11.14 58.1562 11.14C57.4503 11.14 56.9636 11.4534 56.7093 11.9409H56.6918V11.2184Z" fill="white"/>
<path d="M61.0423 9.46421V15.7452H61.8052V9.46421H61.0423Z" fill="white"/>
<path fill-rule="evenodd" clip-rule="evenodd" d="M62.9112 13.4818C62.9112 14.9225 63.7618 15.8235 65.0245 15.8235C66.2828 15.8235 67.1334 14.9225 67.1334 13.4818C67.1334 12.0367 66.2828 11.14 65.0245 11.14C63.7618 11.14 62.9112 12.0367 62.9112 13.4818ZM65.0245 15.1576C65.8312 15.1576 66.3574 14.5482 66.3574 13.4818C66.3574 12.4154 65.8312 11.806 65.0245 11.806C64.2178 11.806 63.6872 12.4154 63.6872 13.4818C63.6872 14.5482 64.2178 15.1576 65.0245 15.1576Z" fill="white"/>
<path fill-rule="evenodd" clip-rule="evenodd" d="M69.5329 15.8235C68.6253 15.8235 68.0158 15.2794 68.0158 14.4655C68.0158 13.6907 68.6165 13.2032 69.6688 13.1423L70.9753 13.0683V12.6896C70.9753 12.1368 70.607 11.806 69.9757 11.806C69.3882 11.806 69.0199 12.0802 68.9234 12.5242H68.1868C68.2394 11.7407 68.9146 11.14 69.9932 11.14C71.063 11.14 71.7382 11.7146 71.7382 12.6156V15.7452H71.0148V14.966H70.9972C70.7254 15.484 70.1467 15.8235 69.5329 15.8235ZM70.9753 14.0259C70.9753 14.6788 70.4229 15.1793 69.7038 15.1793C69.1558 15.1793 68.7919 14.8964 68.7919 14.4655C68.7919 14.0389 69.1426 13.7691 69.7565 13.7299L70.9753 13.6559V14.0259Z" fill="white"/>
<path fill-rule="evenodd" clip-rule="evenodd" d="M72.7829 13.4818C72.7829 14.9008 73.5721 15.8235 74.7339 15.8235C75.3916 15.8235 75.9133 15.5014 76.2071 14.9791H76.2203V15.7452H76.9481V9.46421H76.1852V11.954H76.1676C75.8958 11.4578 75.3697 11.14 74.7164 11.14C73.5677 11.14 72.7829 12.0628 72.7829 13.4818ZM74.8786 11.806C74.0719 11.806 73.5633 12.4589 73.5633 13.4818C73.5633 14.509 74.0719 15.1576 74.8786 15.1576C75.6634 15.1576 76.1896 14.496 76.1896 13.4818C76.1896 12.4719 75.6634 11.806 74.8786 11.806Z" fill="white"/>
<path fill-rule="evenodd" clip-rule="evenodd" d="M82.3082 15.8235C81.0455 15.8235 80.1949 14.9225 80.1949 13.4818C80.1949 12.0367 81.0455 11.14 82.3082 11.14C83.5665 11.14 84.4171 12.0367 84.4171 13.4818C84.4171 14.9225 83.5665 15.8235 82.3082 15.8235ZM83.641 13.4818C83.641 14.5482 83.1149 15.1576 82.3082 15.1576C81.5014 15.1576 80.9709 14.5482 80.9709 13.4818C80.9709 12.4154 81.5014 11.806 82.3082 11.806C83.1149 11.806 83.641 12.4154 83.641 13.4818Z" fill="white"/>
<path d="M86.2027 11.2184H85.4837V15.7452H86.2466V13.0813C86.2466 12.3152 86.7157 11.8103 87.4347 11.8103C88.1362 11.8103 88.4826 12.2108 88.4826 12.942V15.7452H89.2455V12.8071C89.2455 11.7799 88.6668 11.14 87.6671 11.14C86.9612 11.14 86.4745 11.4534 86.2203 11.9409H86.2027V11.2184Z" fill="white"/>
<path d="M93.6629 10.1258H92.9001V11.2184H92.2205V11.8408H92.9001V14.57C92.9001 15.4405 93.2245 15.78 94.0619 15.78C94.2417 15.78 94.4521 15.7669 94.5442 15.7452V15.1097C94.4916 15.1184 94.3162 15.1315 94.2285 15.1315C93.8383 15.1315 93.6629 14.9443 93.6629 14.5308V11.8408H94.5486V11.2184H93.6629V10.1258Z" fill="white"/>
<path d="M95.6985 9.46421V15.7452H96.4614V13.1074C96.4614 12.3239 96.9305 11.8103 97.689 11.8103C98.4037 11.8103 98.7676 12.2412 98.7676 12.9594V15.7452H99.5305V12.8202C99.5305 11.8103 98.9254 11.14 97.9258 11.14C97.233 11.14 96.7332 11.436 96.4789 11.9409H96.4614V9.46421H95.6985Z" fill="white"/>
<path fill-rule="evenodd" clip-rule="evenodd" d="M104.574 14.4481H103.824C103.697 14.8746 103.272 15.1663 102.693 15.1663C101.873 15.1663 101.36 14.5961 101.36 13.7299V13.6863H104.631V13.3991C104.631 12.028 103.872 11.14 102.64 11.14C101.382 11.14 100.575 12.0933 100.575 13.4992C100.575 14.9225 101.369 15.8235 102.675 15.8235C103.671 15.8235 104.442 15.2403 104.574 14.4481ZM102.627 11.7973C101.912 11.7973 101.413 12.3414 101.364 13.0944H103.842C103.824 12.337 103.346 11.7973 102.627 11.7973Z" fill="white"/>
<path fill-rule="evenodd" clip-rule="evenodd" d="M45.3021 31.1427L44.1972 27.9019H39.5936L38.4887 31.1427H36.5384L40.8993 19.1518H42.9249L47.2858 31.1427H45.3021ZM40.0707 26.4062L41.8703 21.1461H41.9205L43.7201 26.4062H40.0707Z" fill="white"/>
<path fill-rule="evenodd" clip-rule="evenodd" d="M57.1021 26.7718C57.1021 24.0047 55.629 22.2596 53.3941 22.2596C52.1218 22.2596 51.109 22.8995 50.5901 23.905H50.5566V22.4009H48.8072V34.0345H50.6152V29.7051H50.657C51.1593 30.6774 52.1637 31.2923 53.4276 31.2923C55.6373 31.2923 57.1021 29.539 57.1021 26.7718ZM52.917 29.7716C54.3483 29.7716 55.2439 28.6083 55.2439 26.7718C55.2439 24.9437 54.3483 23.772 52.917 23.772C51.5359 23.772 50.6068 24.9686 50.6068 26.7718C50.6068 28.5916 51.5275 29.7716 52.917 29.7716Z" fill="white"/>
<path fill-rule="evenodd" clip-rule="evenodd" d="M63.4867 22.2596C65.7215 22.2596 67.1947 24.0047 67.1947 26.7718C67.1947 29.539 65.7299 31.2923 63.5201 31.2923C62.2562 31.2923 61.2518 30.6774 60.7496 29.7051H60.7077V34.0345H58.8998V22.4009H60.6491V23.905H60.6826C61.2016 22.8995 62.2144 22.2596 63.4867 22.2596ZM65.3365 26.7718C65.3365 28.6083 64.4409 29.7716 63.0095 29.7716C61.6201 29.7716 60.6994 28.5916 60.6994 26.7718C60.6994 24.9686 61.6285 23.772 63.0095 23.772C64.4409 23.772 65.3365 24.9437 65.3365 26.7718Z" fill="white"/>
<path d="M74.4059 27.8022H72.556C72.6732 29.9711 74.4812 31.3422 77.1597 31.3422C80.0223 31.3422 81.8219 29.9378 81.8219 27.6942C81.8219 25.9408 80.7924 24.952 78.3148 24.3703L76.9839 24.0462C75.427 23.664 74.7909 23.1654 74.7909 22.3178C74.7909 21.2541 75.7869 20.5229 77.2434 20.5229C78.6998 20.5229 79.6959 21.2458 79.8047 22.4424H81.6294C81.5708 20.3733 79.8214 18.9523 77.2685 18.9523C74.6904 18.9523 72.8741 20.3733 72.8741 22.4424C72.8741 24.1127 73.9036 25.1431 76.1218 25.6749L77.687 26.0489C79.2522 26.4311 79.9135 26.9879 79.9135 27.9186C79.9135 28.9905 78.817 29.7716 77.2936 29.7716C75.7032 29.7716 74.5398 28.9905 74.4059 27.8022Z" fill="white"/>
<path d="M86.0385 20.3318H84.2222V22.4009H82.9415V23.8219H84.2222V28.8409C84.2222 30.5278 84.9169 31.2009 86.6998 31.2009C87.1015 31.2009 87.5033 31.1677 87.7042 31.1178V29.6968C87.587 29.7218 87.2941 29.7384 87.1099 29.7384C86.3733 29.7384 86.0385 29.3977 86.0385 28.6415V23.8219H87.7126V22.4009H86.0385V20.3318Z" fill="white"/>
<path fill-rule="evenodd" clip-rule="evenodd" d="M88.9996 26.7718C88.9996 29.5888 90.6569 31.3089 93.1764 31.3089C95.6958 31.3089 97.3531 29.5888 97.3531 26.7718C97.3531 23.9631 95.6874 22.243 93.1764 22.243C90.6653 22.243 88.9996 23.9631 88.9996 26.7718ZM93.1764 29.8298C94.5993 29.8298 95.5117 28.7163 95.5117 26.7718C95.5117 24.8356 94.5909 23.7221 93.1764 23.7221C91.7618 23.7221 90.8411 24.8356 90.8411 26.7718C90.8411 28.7163 91.7618 29.8298 93.1764 29.8298Z" fill="white"/>
<path d="M99.1591 22.4009H100.883V23.8883H100.925C101.218 22.8662 102.005 22.2596 103.043 22.2596C103.302 22.2596 103.528 22.3012 103.662 22.3261V23.9964C103.52 23.9382 103.202 23.8966 102.85 23.8966C101.687 23.8966 100.967 24.6694 100.967 25.9076V31.1427H99.1591V22.4009Z" fill="white"/>
<path fill-rule="evenodd" clip-rule="evenodd" d="M111.026 28.5812H112.742C112.491 30.1767 110.968 31.3151 108.95 31.3151C106.364 31.3151 104.799 29.5784 104.799 26.8196C104.799 24.0774 106.389 22.2492 108.875 22.2492C111.319 22.2492 112.842 23.961 112.842 26.6118V27.2267H106.623V27.3348C106.623 28.8555 107.544 29.8609 108.992 29.8609C110.022 29.8609 110.783 29.3457 111.026 28.5812ZM106.623 26.0752L111.026 26.0339C111.026 25.6656 110.871 24.9828 110.506 24.6207C110.141 24.2587 109.604 23.9838 108.875 23.9838C107.406 23.9838 106.623 24.958 106.623 26.0752Z" fill="white"/>
</svg>
