<svg width="43" height="56" viewBox="0 0 43 56" fill="none" xmlns="http://www.w3.org/2000/svg">
<path fill-rule="evenodd" clip-rule="evenodd" d="M18.089 16.7997C16.9694 16.7997 16.0636 17.7447 16.0636 18.8996C16.0636 20.0546 16.9694 20.9996 18.089 20.9996C19.2085 20.9996 20.1244 20.0546 20.1244 18.8996C20.1244 17.7447 19.2085 16.7997 18.089 16.7997ZM11.9824 1.04998C11.9824 1.62747 12.4404 2.09996 13.0002 2.09996H14.0179L17.6818 10.0693L16.3078 12.6313C15.5649 14.0383 16.5419 15.7497 18.0889 15.7497H29.2841C29.8439 15.7497 30.3018 15.2772 30.3018 14.6997C30.3018 14.1223 29.8439 13.6498 29.2841 13.6498H18.0889L19.2084 11.5498H26.7906C27.5539 11.5498 28.2256 11.1193 28.5717 10.4683L32.2152 3.65394C32.5918 2.96095 32.1032 2.09996 31.3298 2.09996H16.2671L15.5852 0.598489C15.4224 0.230996 15.056 0 14.6693 0H13.0002C12.4404 0 11.9824 0.472492 11.9824 1.04998ZM28.2663 16.7997C27.1468 16.7997 26.241 17.7447 26.241 18.8996C26.241 20.0546 27.1468 20.9996 28.2663 20.9996C29.3859 20.9996 30.3018 20.0546 30.3018 18.8996C30.3018 17.7447 29.3859 16.7997 28.2663 16.7997Z" fill="#8B96A5"/>
<path d="M14.0547 29.2727H15.3161L18.282 36.517H18.3843L21.3502 29.2727H22.6115V38H21.6229V31.3693H21.5377L18.8104 38H17.8559L15.1286 31.3693H15.0434V38H14.0547V29.2727ZM25.2419 40.4545C25.0714 40.4545 24.9194 40.4403 24.7859 40.4119C24.6524 40.3864 24.56 40.3608 24.5089 40.3352L24.7646 39.4489C25.0089 39.5114 25.2248 39.5341 25.4123 39.517C25.5998 39.5 25.766 39.4162 25.9109 39.2656C26.0586 39.1179 26.1936 38.8778 26.3157 38.5455L26.5032 38.0341L24.0828 31.4545H25.1737L26.9805 36.6705H27.0487L28.8555 31.4545H29.9464L27.168 38.9545C27.043 39.2926 26.8882 39.5724 26.7035 39.794C26.5189 40.0185 26.3044 40.1847 26.06 40.2926C25.8186 40.4006 25.5458 40.4545 25.2419 40.4545ZM13.9056 53.1364C13.2919 53.1364 12.7635 52.9915 12.3203 52.7017C11.8772 52.4119 11.5363 52.0128 11.2976 51.5043C11.059 50.9957 10.9397 50.4148 10.9397 49.7614C10.9397 49.0966 11.0618 48.5099 11.3061 48.0014C11.5533 47.4901 11.897 47.0909 12.3374 46.804C12.7806 46.5142 13.2976 46.3693 13.8885 46.3693C14.3488 46.3693 14.7635 46.4545 15.1328 46.625C15.5022 46.7955 15.8047 47.0341 16.0405 47.3409C16.2763 47.6477 16.4226 48.0057 16.4794 48.4148H15.4738C15.397 48.1165 15.2266 47.8523 14.9624 47.6222C14.701 47.3892 14.3488 47.2727 13.9056 47.2727C13.5135 47.2727 13.1698 47.375 12.8743 47.5795C12.5817 47.7812 12.353 48.0668 12.1882 48.4361C12.0263 48.8026 11.9453 49.233 11.9453 49.7273C11.9453 50.233 12.0249 50.6733 12.184 51.0483C12.3459 51.4233 12.5732 51.7145 12.8658 51.9219C13.1613 52.1293 13.5078 52.233 13.9056 52.233C14.1669 52.233 14.4042 52.1875 14.6172 52.0966C14.8303 52.0057 15.0107 51.875 15.1584 51.7045C15.3061 51.5341 15.4113 51.3295 15.4738 51.0909H16.4794C16.4226 51.4773 16.282 51.8253 16.0576 52.1349C15.836 52.4418 15.5419 52.6861 15.1755 52.8679C14.8118 53.0469 14.3885 53.1364 13.9056 53.1364ZM19.8757 53.1534C19.461 53.1534 19.0845 53.0753 18.7465 52.919C18.4084 52.7599 18.1399 52.5312 17.9411 52.233C17.7422 51.9318 17.6428 51.5682 17.6428 51.142C17.6428 50.767 17.7167 50.4631 17.8644 50.2301C18.0121 49.9943 18.2095 49.8097 18.4567 49.6761C18.7039 49.5426 18.9766 49.4432 19.2749 49.3778C19.576 49.3097 19.8786 49.2557 20.1826 49.2159C20.5803 49.1648 20.9027 49.1264 21.1499 49.1009C21.3999 49.0724 21.5817 49.0256 21.6953 48.9602C21.8118 48.8949 21.8701 48.7812 21.8701 48.6193V48.5852C21.8701 48.1648 21.755 47.8381 21.5249 47.6051C21.2976 47.3722 20.9524 47.2557 20.4894 47.2557C20.0093 47.2557 19.6328 47.3608 19.3601 47.571C19.0874 47.7812 18.8956 48.0057 18.7848 48.2443L17.8303 47.9034C18.0007 47.5057 18.228 47.196 18.5121 46.9744C18.799 46.75 19.1115 46.5937 19.4496 46.5057C19.7905 46.4148 20.1257 46.3693 20.4553 46.3693C20.6655 46.3693 20.907 46.3949 21.1797 46.446C21.4553 46.4943 21.7209 46.5952 21.9766 46.7486C22.2351 46.902 22.4496 47.1335 22.6201 47.4432C22.7905 47.7528 22.8757 48.1676 22.8757 48.6875V53H21.8701V52.1136H21.8189C21.7507 52.2557 21.6371 52.4077 21.478 52.5696C21.3189 52.7315 21.1073 52.8693 20.8431 52.983C20.5789 53.0966 20.2564 53.1534 19.8757 53.1534ZM20.0292 52.25C20.4269 52.25 20.7621 52.1719 21.0348 52.0156C21.3104 51.8594 21.5178 51.6577 21.657 51.4105C21.799 51.1634 21.8701 50.9034 21.8701 50.6307V49.7102C21.8274 49.7614 21.7337 49.8082 21.5888 49.8509C21.4468 49.8906 21.282 49.9261 21.0945 49.9574C20.9098 49.9858 20.7294 50.0114 20.5533 50.0341C20.38 50.054 20.2394 50.071 20.1314 50.0852C19.8701 50.1193 19.6257 50.1747 19.3985 50.2514C19.174 50.3253 18.9922 50.4375 18.853 50.5881C18.7167 50.7358 18.6485 50.9375 18.6485 51.1932C18.6485 51.5426 18.7777 51.8068 19.0363 51.9858C19.2976 52.1619 19.6286 52.25 20.0292 52.25ZM24.7113 53V46.4545H25.6829V47.4432H25.7511C25.8704 47.1193 26.0863 46.8565 26.3988 46.6548C26.7113 46.4531 27.0636 46.3523 27.4556 46.3523C27.5295 46.3523 27.6218 46.3537 27.7326 46.3565C27.8434 46.3594 27.9272 46.3636 27.9841 46.3693V47.392C27.95 47.3835 27.8718 47.3707 27.7497 47.3537C27.6304 47.3338 27.5039 47.3239 27.3704 47.3239C27.0522 47.3239 26.7681 47.3906 26.5181 47.5241C26.271 47.6548 26.075 47.8366 25.9301 48.0696C25.788 48.2997 25.717 48.5625 25.717 48.858V53H24.7113ZM32.4329 46.4545V47.3068H29.0409V46.4545H32.4329ZM30.0295 44.8864H31.0352V51.125C31.0352 51.4091 31.0764 51.6222 31.1588 51.7642C31.244 51.9034 31.352 51.9972 31.4826 52.0455C31.6162 52.0909 31.7568 52.1136 31.9045 52.1136C32.0153 52.1136 32.1062 52.108 32.1772 52.0966C32.2483 52.0824 32.3051 52.071 32.3477 52.0625L32.5522 52.9659C32.4841 52.9915 32.3889 53.017 32.2667 53.0426C32.1446 53.071 31.9897 53.0852 31.8022 53.0852C31.5181 53.0852 31.2397 53.0241 30.967 52.902C30.6971 52.7798 30.4727 52.5938 30.2937 52.3438C30.1176 52.0938 30.0295 51.7784 30.0295 51.3977V44.8864Z" fill="#8B96A5"/>
</svg>